HIERARCHY
ROOT Hips
{
	OFFSET	0.00	0.00	0.00
	CHANNELS 6 Xposition Yposition Zposition Zrotation Xrotation Yrotation
	JOINT LeftUpLeg
	{
		OFFSET	 0.126116	-0.065224	 0.014019
		CHANNELS 3 Zrotation Xrotation Yrotation
		JOINT LeftLeg
		{
			OFFSET	 0.000000	 0.569914	 0.000000
			CHANNELS 3 Zrotation Xrotation Yrotation
			JOINT LeftFoot
			{
				OFFSET	 0.000000	 0.544423	 0.000000
				CHANNELS 3 Zrotation Xrotation Yrotation
				JOINT LeftToeBase
				{
					OFFSET	 0.000000	 0.207117	 0.000000
					CHANNELS 3 Zrotation Xrotation Yrotation
					End Site
					{
						OFFSET	 0.000000	 0.207117	 0.000000
					}
				}
			}
		}
	}
	JOINT RightUpLeg
	{
		OFFSET	-0.124023	-0.065224	 0.008373
		CHANNELS 3 Zrotation Xrotation Yrotation
		JOINT RightLeg
		{
			OFFSET	 0.000000	 0.570047	 0.000000
			CHANNELS 3 Zrotation Xrotation Yrotation
			JOINT RightFoot
			{
				OFFSET	 0.000000	 0.544354	 0.000000
				CHANNELS 3 Zrotation Xrotation Yrotation
				JOINT RightToeBase
				{
					OFFSET	 0.000000	 0.207540	 0.000000
					CHANNELS 3 Zrotation Xrotation Yrotation
					End Site
					{
						OFFSET	 0.000000	 0.207540	 0.000000
					}
				}
			}
		}
	}
	JOINT Spine
	{
		OFFSET	 0.000184	 0.117403	 0.007763
		CHANNELS 3 Zrotation Xrotation Yrotation
		JOINT Spine1
		{
			OFFSET	 0.000000	 0.137269	 0.000000
			CHANNELS 3 Zrotation Xrotation Yrotation
			JOINT Spine2
			{
				OFFSET	 0.000000	 0.156879	 0.000000
				CHANNELS 3 Zrotation Xrotation Yrotation
				JOINT LeftShoulder
				{
					OFFSET	 0.080501	 0.160143	 0.002496
					CHANNELS 3 Zrotation Xrotation Yrotation
					JOINT LeftArm
					{
						OFFSET	 0.000000	 0.164363	 0.000000
						CHANNELS 3 Zrotation Xrotation Yrotation
						JOINT LeftForeArm
						{
							OFFSET	 0.000000	 0.364576	 0.000000
							CHANNELS 3 Zrotation Xrotation Yrotation
							JOINT LeftHand
							{
								OFFSET	 0.000000	 0.360812	 0.000000
								CHANNELS 3 Zrotation Xrotation Yrotation
								JOINT LeftHandIndex1
								{
									OFFSET	 0.000000	 0.086006	 0.000000
									CHANNELS 3 Zrotation Xrotation Yrotation
									JOINT LeftHandIndex2
									{
										OFFSET	 0.000000	 0.047237	 0.000000
										CHANNELS 3 Zrotation Xrotation Yrotation
										JOINT LeftHandIndex3
										{
											OFFSET	-0.004284	 0.038165	 0.000551
											CHANNELS 3 Zrotation Xrotation Yrotation
											End Site
											{
												OFFSET	-0.004284	 0.038165	 0.000551
											}
										}
									}
								}
							}
						}
					}
				}
				JOINT Neck
				{
					OFFSET	 0.000000	 0.176489	 0.000000
					CHANNELS 3 Zrotation Xrotation Yrotation
					JOINT Head
					{
						OFFSET	 0.000000	 0.077941	 0.001747
						CHANNELS 3 Zrotation Xrotation Yrotation
						End Site
						{
							OFFSET	 0.000000	 0.077941	 0.001747
						}
					}
				}
				JOINT RightShoulder
				{
					OFFSET	-0.080363	 0.159706	-0.000306
					CHANNELS 3 Zrotation Xrotation Yrotation
					JOINT RightArm
					{
						OFFSET	 0.000000	 0.164196	 0.000000
						CHANNELS 3 Zrotation Xrotation Yrotation
						JOINT RightForeArm
						{
							OFFSET	 0.000000	 0.365611	 0.000000
							CHANNELS 3 Zrotation Xrotation Yrotation
							JOINT RightHand
							{
								OFFSET	 0.000000	 0.360648	 0.000000
								CHANNELS 3 Zrotation Xrotation Yrotation
								JOINT RightHandIndex1
								{
									OFFSET	 0.000000	 0.069977	 0.000000
									CHANNELS 3 Zrotation Xrotation Yrotation
									JOINT RightHandIndex2
									{
										OFFSET	 0.000000	 0.052305	 0.000000
										CHANNELS 3 Zrotation Xrotation Yrotation
										JOINT RightHandIndex3
										{
											OFFSET	 0.009002	 0.042196	 0.000782
											CHANNELS 3 Zrotation Xrotation Yrotation
											End Site
											{
												OFFSET	 0.009002	 0.042196	 0.000782
											}
										}
									}
								}
							}
						}
					}
				}
			}
		}
	}
}
MOTION
Frames:    6
Frame Time: 0.03333334
-0.054926	 1.187127	-3.502015	-3.586648	 0.704373	-178.101500	 179.196600	 25.326930	-28.552830	 6.820599	-41.860190	 1.582895	-13.931820	 78.456020	 25.549400	 1.358084	 29.283640	-2.741566	 167.348500	-3.417934	 16.357620	-7.202058	-59.045640	 1.302694	 16.605300	 63.312120	-6.798205	-1.581211	 32.071300	 2.955296	-3.125649	 6.951612	 4.660707	-1.247233	 2.933812	 1.855783	 0.571647	-3.839091	-2.799186	-122.014600	 5.663531	 93.203910	-4.993811	 51.560130	 9.747362	 7.638691	-0.247408	-0.061287	 6.487093	 0.979750	 28.901900	 4.494689	 20.562770	-1.714288	-5.861688	 22.719690	 2.512063	 5.384476	 5.584326	-0.147012	-0.167285	-5.036767	-0.413486	-2.694818	-1.543100	-4.438575	 119.041700	 0.571359	-91.122180	-13.555550	 45.823120	 2.106891	-7.647970	-0.188195	 0.041336	-11.428820	 0.947021	-0.753804	-2.730642	 27.212570	 1.481943	 16.316520	 46.661030	-12.538920	-8.524828	 24.900710	-1.288678
-0.054306	 1.208225	-3.690585	-3.085636	-0.341185	-174.616000	 178.117500	 14.525410	-24.493100	 5.886922	-37.732960	 4.957340	-7.067259	 84.727830	 14.976240	 1.484334	 30.891170	-2.798600	 163.017200	 19.126880	 26.150880	-9.135690	-64.289340	 1.560040	 21.426860	 81.587970	-14.456910	-1.720729	 33.523550	 3.793239	-1.608811	 6.587009	 0.309539	-1.115349	 2.917407	 0.764389	 0.803758	-3.708382	-3.541974	-121.637400	 7.162883	 93.928060	 16.133510	 46.824930	-2.474092	 8.007179	-0.252599	-0.059381	 19.651530	-4.894691	 16.503810	 4.677133	 19.508330	-1.712340	-5.862554	 22.018970	 2.434257	 5.346641	 4.694247	-0.162651	-0.175753	-4.854722	-0.085827	-2.256492	-1.982029	-4.056621	 118.559900	-0.149995	-90.768000	-1.558773	 48.990390	-4.388291	-7.936468	-0.189056	 0.040379	-6.451540	 6.104377	-5.293333	-2.343409	 25.299880	 1.281411	 15.753390	 44.588640	-11.687320	-8.531943	 23.140550	-1.171145
-0.049703	 1.195760	-3.933561	-3.069443	-2.458643	-171.737000	 177.943900	-0.065721	-20.294130	 4.192654	-28.880410	 8.039643	 89.500620	 87.895970	-86.647090	 1.655512	 32.991020	-2.880992	 157.838800	 37.328990	 37.764420	-4.605996	-46.882040	 9.803311	 48.910840	 84.563070	-46.706650	-1.665472	 33.100710	 2.884653	-0.925163	 5.535175	-3.210766	-0.863899	 3.743512	-0.355030	 0.745563	-4.445994	-4.290853	-121.328900	 9.240074	 94.938600	 35.570820	 34.118650	-10.246230	 8.307054	-0.254281	-0.058018	 28.940500	-7.931421	 6.787839	 4.707223	 19.730600	-1.735709	-5.862381	 22.110630	 2.444411	 5.352930	 4.842075	-0.160002	-0.174640	-4.873532	 0.194117	-1.625065	-2.793990	-4.063636	 118.075400	-1.065622	-90.332180	 13.434010	 49.998000	-13.198630	-8.190860	-0.188485	 0.039585	-4.815141	 10.053720	-9.943318	-1.732120	 20.727250	 0.987383	 14.685090	 39.840050	-9.943676	-8.532765	 18.759640	-0.885416
-0.030633	 1.154995	-4.162231	-2.685571	-2.414746	-170.922200	-179.241900	-13.492480	-17.353750	 3.395621	-24.078150	 4.960188	-31.113050	 85.812590	 28.789170	 3.160225	 47.729140	-3.805771	 159.149200	 46.259330	 35.195300	-5.230944	-50.167840	 7.732613	 120.831100	 87.981520	-119.971900	-1.837090	 35.108980	 2.973069	-0.091841	 5.188284	-6.189694	-0.503499	 3.865882	-1.145867	 0.749684	-4.640799	-4.330693	-121.096600	 9.555039	 95.072100	 39.572520	 30.190950	-14.597080	 8.614448	-0.257780	-0.056398	 31.037890	-11.167880	 4.441834	 5.042314	 20.405150	-1.895180	-5.861722	 23.275030	 2.573982	 5.419969	 6.423674	-0.132752	-0.142893	-5.075522	 0.293086	-1.326214	-2.881017	-3.153259	 118.340000	-1.651175	-90.069660	 18.372350	 48.362830	-13.190690	-8.434669	-0.188694	 0.038794	 1.102104	 8.792517	-18.792000	-1.422303	 12.743150	 0.861434	 13.462450	 32.235690	-7.588192	-8.481186	 11.135530	-0.401491
-0.016197	 1.157753	-4.344648	-0.871679	-0.555288	-168.613400	-173.353100	-17.096960	-15.837050	 4.552248	-30.912860	 3.852165	-25.033700	 62.438360	 19.626910	 7.275827	 68.176610	-6.015203	 166.890700	 37.532150	 30.102700	-4.954354	-48.954730	 8.469699	-13.588690	 78.993800	 6.901515	-1.778570	 34.434480	 2.942324	 1.761179	 5.366438	-8.517863	-0.375720	 2.704777	-1.633597	 1.117031	-3.562318	-4.566033	-120.949400	 8.893958	 94.727880	 35.471570	 33.673360	-11.811160	 8.786532	-0.256966	-0.055732	 27.497480	-8.288950	 4.608068	 5.043330	 21.036130	-1.935379	-5.864392	 24.575020	 2.720018	 5.487821	 8.036983	-0.106797	-0.089309	-5.171231	 0.243449	-1.691553	-1.323279	-2.759842	 119.077100	-2.330760	-89.766750	 18.623870	 47.303220	-12.169680	-8.636616	-0.189131	 0.038131	-0.232060	 7.839143	-18.128990	-1.663212	 9.578726	 0.956547	 13.124220	 29.397920	-6.807582	-8.446038	 8.321542	-0.224128
-0.009723	 1.181424	-4.518733	 0.064753	 0.765286	-171.515700	-169.020400	-2.340257	-21.699390	 11.201360	-55.793510	 11.346070	-27.758950	 67.453090	 23.378680	 3.506836	 50.248870	-3.427847	 172.498000	 27.466300	 26.648890	-4.795630	-48.031070	 3.967045	-40.633740	 82.208630	 36.581940	-1.612411	 32.461200	 2.858422	 2.167766	 6.160337	-4.919252	-0.499665	 2.346194	-0.878293	 1.156416	-3.178997	-4.282449	-120.534700	 8.134916	 94.317000	 26.796580	 39.603180	-8.483025	 8.906572	-0.254332	-0.055417	 20.928650	-4.509302	 10.566160	 5.011593	 22.757740	-2.029864	-5.871788	 26.029580	 2.885373	 5.569098	 9.983276	-0.077913	-0.002162	-5.041654	 0.021889	-1.786342	-1.256946	-3.317907	 119.562800	-1.434977	-90.196400	 8.665306	 48.343640	-6.383565	-8.822086	-0.189733	 0.037415	-5.020887	 3.737098	-9.839343	-2.060400	 13.769780	 1.150557	 13.618350	 33.403190	-7.922748	-8.484100	 11.404130	-0.418414
